<mxfile host="app.diagrams.net" modified="2024-01-15T01:17:23.423Z" agent="Mozilla/5.0 (X11; Ubuntu; Linux x86_64; rv:121.0) Gecko/20100101 Firefox/121.0" version="22.1.18" etag="CuCem2rCqSvPNSqirSMu" type="github">
  <diagram name="Page-1" id="Uiu4wbFv9RFSIKA2n1KZ">
    <mxGraphModel>
      <root>
        <mxCell id="0" />
        <mxCell id="1" parent="0" />
      </root>
    </mxGraphModel>
  </diagram>
</mxfile>
